<svg id="Capa_1" enable-background="new 0 0 512 512" height="512" viewBox="0 0 512 512" width="512" xmlns="http://www.w3.org/2000/svg"><g><g><g><path d="m480.018 492.353c-8.01 8.01-20.996 8.01-29.005 0l-132.136-132.136 29.005-29.005 132.136 132.136c8.01 8.009 8.01 20.995 0 29.005z" fill="#655e67"/></g></g><g><g><path d="m480.018 463.347-132.136-132.136-15 15 117.136 117.136c7.842 7.842 7.985 20.441.472 28.483l.523.523c8.009 8.01 20.996 8.01 29.005 0 8.01-8.01 8.01-20.996 0-29.006z" fill="#544f56"/></g></g><g><g><path d="m77.175 303.896h357.65c37.112 0 68.354-28.993 69.628-66.016.031-.915.047-1.833.047-2.755 0-43.599-35.408-78.943-79.085-78.943-.03 0-.059.002-.089.002.051-1.165.089-2.334.089-3.512 0-43.599-35.408-78.943-79.085-78.943-13.607 0-26.41 3.433-37.592 9.474-18.34-39.373-57.412-67.176-103.219-69.417-68.102-3.333-126.002 51.3-126.372 119.36-.043 7.947.696 15.712 2.128 23.232-41.198 2.729-73.775 36.93-73.775 78.746 0 .922.016 1.841.047 2.755 1.274 37.024 32.516 66.017 69.628 66.017z" fill="#ddebfd"/></g></g><g><g><path d="m424.202 154.927c-.03 0-.059.002-.089.002.051-1.165.089-2.334.089-3.512 0-43.599-35.408-78.943-79.085-78.943-13.607 0-26.41 3.433-37.592 9.474-18.34-39.372-57.412-67.176-103.219-69.417-42.928-2.101-81.795 18.835-104.762 51.644 21.124-14.788 47.101-22.997 74.762-21.644 35.037 1.714 66.133 18.383 87.026 43.746 10.426 12.657 26.697 19.158 42.943 16.933 3.544-.485 7.163-.736 10.841-.736 46.141 0 65.486 32.002 73.513 56.132 4.734 14.23 15.889 25.558 30.147 30.207 31.646 10.318 54.509 40.022 54.509 75.057 0 .922-.016 1.841-.047 2.755-.349 10.138-2.957 19.666-7.304 28.169 21.382-11.048 36.429-32.71 37.304-58.169.031-.915.047-1.833.047-2.755.002-43.599-35.406-78.943-79.083-78.943z" fill="#bed9fd"/></g></g><g><g><circle cx="273.665" cy="285.999" fill="#c8c3ca" r="100.507"/></g></g><g><g><path d="m344.734 214.93c-23.452-23.452-55.609-32.886-86.069-28.313 20.52 3.08 40.271 12.515 56.069 28.313 39.25 39.25 39.25 102.888 0 142.138-15.799 15.799-35.549 25.233-56.069 28.313 30.46 4.573 62.617-4.862 86.069-28.313 39.25-39.25 39.25-102.887 0-142.138z" fill="#b1abb4"/></g></g><g><g><circle cx="273.665" cy="285.999" fill="#fdfcfc" r="66.511"/></g></g><g><g><path d="m320.695 238.969c-16.829-16.829-40.431-22.74-62.031-17.761 11.737 2.706 22.885 8.616 32.031 17.761 25.974 25.974 25.974 68.087 0 94.061-9.145 9.145-20.293 15.055-32.031 17.761 21.6 4.979 45.201-.931 62.031-17.761 25.975-25.974 25.975-68.087 0-94.061z" fill="#f1f1f1"/></g></g><g><path d="m378.992 311.396h55.833c19.942 0 38.906-7.517 53.396-21.164 14.619-13.77 23.046-32.271 23.728-52.095.034-1 .051-2.003.051-3.012 0-45.169-34.88-82.357-79.162-86.128-1.935-45.968-39.998-82.768-86.508-82.768-11.771 0-23.454 2.41-34.202 7.016-21.203-39.314-61.252-64.75-106.241-66.951-39.175-1.911-76.586 14.054-102.645 43.817-2.729 3.116-2.414 7.854.703 10.583 3.116 2.728 7.855 2.413 10.583-.703 23.023-26.296 56.05-40.413 90.626-38.715 41.954 2.053 79.04 26.995 96.787 65.093.873 1.873 2.479 3.303 4.441 3.953 1.961.649 4.104.462 5.922-.521 10.38-5.608 22.146-8.573 34.027-8.573 39.472 0 71.585 32.049 71.585 71.443 0 .911-.025 1.892-.082 3.183-.09 2.045.659 4.037 2.074 5.515 1.415 1.479 3.372 2.314 5.418 2.314.053 0 .118-.001.182-.002 39.429.051 71.492 32.081 71.492 71.443 0 .837-.014 1.67-.043 2.498-.545 15.844-7.3 30.65-19.021 41.69-11.696 11.017-27.007 17.084-43.111 17.084h-53.702c2.973-31.011-7.389-63.071-31.086-86.768-20.4-20.4-47.523-31.635-76.372-31.635-28.85 0-55.973 11.235-76.372 31.635-20.4 20.399-31.635 47.522-31.635 76.372 0 3.494.168 6.962.494 10.396h-88.977c-16.104 0-31.414-6.067-43.111-17.084-11.721-11.039-18.476-25.846-19.021-41.688-.028-.829-.043-1.663-.043-2.499 0-37.48 29.33-68.783 66.771-71.263 2.144-.142 4.123-1.196 5.438-2.895 1.314-1.699 1.836-3.88 1.435-5.991-1.364-7.165-2.036-14.496-1.996-21.788.095-17.393 4.113-34.076 11.943-49.585 1.867-3.698.382-8.209-3.315-10.076-3.697-1.865-8.208-.382-10.076 3.315-8.885 17.599-13.445 36.529-13.552 56.263-.03 5.576.306 11.17 1.003 16.715-41.341 6.698-72.651 42.703-72.651 85.304 0 1.008.018 2.012.052 3.013.682 19.823 9.108 38.324 23.727 52.094 14.49 13.648 33.453 21.164 53.395 21.164h91.476c4.592 19.141 14.37 36.705 28.641 50.976 20.399 20.4 47.522 31.635 76.372 31.635 19.26 0 37.748-5.014 53.982-14.413l118.063 118.063c5.291 5.29 12.324 8.204 19.806 8.204s14.515-2.914 19.806-8.204c10.921-10.921 10.921-28.691 0-39.612l-46.338-46.338c-2.929-2.929-7.678-2.929-10.606 0-2.929 2.929-2.929 7.678 0 10.606l46.338 46.338c2.457 2.457 3.81 5.725 3.81 9.199 0 3.475-1.353 6.742-3.81 9.2-5.072 5.072-13.326 5.072-18.399 0l-116.025-116.025c3.392-2.669 6.648-5.553 9.747-8.652 3.113-3.113 5.99-6.374 8.643-9.755l47.447 47.447c1.464 1.464 3.384 2.197 5.303 2.197s3.839-.732 5.303-2.197c2.929-2.929 2.929-7.678 0-10.606l-49.501-49.501c5.208-9.037 9.006-18.67 11.384-28.579.126.005.249.018.376.018zm-39.561 40.369c-17.567 17.566-40.923 27.241-65.766 27.241s-48.199-9.675-65.766-27.241c-17.566-17.567-27.241-40.923-27.241-65.766s9.675-48.199 27.241-65.766 40.923-27.241 65.766-27.241 48.199 9.674 65.766 27.241c36.263 36.264 36.263 95.269 0 131.532z"/><path d="m325.998 233.665c-28.856-28.857-75.81-28.857-104.668 0-28.857 28.857-28.857 75.811 0 104.668 14.429 14.429 33.381 21.643 52.334 21.643s37.906-7.214 52.334-21.643c28.857-28.857 28.857-75.81 0-104.668zm-10.606 94.062c-23.009 23.008-60.446 23.008-83.455 0-23.008-23.008-23.008-60.446 0-83.455 11.506-11.505 26.614-17.256 41.728-17.256 15.11 0 30.225 5.753 41.728 17.256 23.007 23.009 23.007 60.447-.001 83.455z"/></g></g></svg>