<svg id="Capa_1" enable-background="new 0 0 505.802 505.802" height="512" viewBox="0 0 505.802 505.802" width="512" xmlns="http://www.w3.org/2000/svg"><g><g><g><path d="m153.966 168.374h197.87c20.532 0 37.817-16.069 38.521-36.589.017-.507.026-1.016.026-1.527 0-24.165-19.589-43.754-43.754-43.754-.016 0-.033.001-.049.001.028-.646.049-1.294.049-1.947 0-24.165-19.589-43.754-43.754-43.754-7.528 0-14.611 1.903-20.798 5.251-10.147-21.822-31.763-37.232-57.106-38.474-37.677-1.847-69.71 28.433-69.915 66.155-.024 4.404.385 8.708 1.177 12.877-22.793 1.512-40.817 20.468-40.817 43.645 0 .511.009 1.02.026 1.527.707 20.52 17.992 36.589 38.524 36.589z" fill="#ddebfd"/></g></g><g><g><path d="m346.63 86.504c-.017 0-.033.001-.049.001.028-.646.049-1.294.049-1.947 0-24.165-19.589-43.754-43.754-43.754-7.528 0-14.611 1.903-20.797 5.251-10.147-21.822-31.763-37.232-57.106-38.474-23.272-1.141-44.379 9.984-57.174 27.539 11.273-7.267 24.809-11.244 39.174-10.539 19.711.966 37.168 10.503 48.727 24.961 5.381 6.731 13.853 10.12 22.367 8.789 2.219-.347 4.493-.527 6.81-.527 28.788 0 38.668 18.009 42.039 31.417 1.965 7.816 7.809 13.955 15.461 16.485 17.43 5.764 30.007 22.188 30.007 41.551 0 .511-.009 1.02-.026 1.527-.198 5.782-1.714 11.21-4.247 16.026 12.677-5.84 21.741-18.284 22.247-33.026.017-.507.026-1.016.026-1.527 0-24.164-19.589-43.753-43.754-43.753z" fill="#bed9fd"/></g></g><g><g><path d="m140.336 375.315h222.326v31.677h-222.326z" fill="#62a4fb"/></g></g><g><g><path d="m403.488 498.302h-301.174c-5.888 0-10.661-4.773-10.661-10.661v-69.989c0-5.888 4.773-10.661 10.661-10.661h301.174c5.888 0 10.661 4.773 10.661 10.661v69.989c0 5.888-4.773 10.661-10.661 10.661z" fill="#bed9fd"/></g></g><g><g><path d="m381.828 469.238h-129.034c-3.441 0-6.23-2.789-6.23-6.23v-19.735c0-3.441 2.789-6.23 6.23-6.23h129.034c3.441 0 6.23 2.789 6.23 6.23v19.735c0 3.441-2.789 6.23-6.23 6.23z" fill="#80b6fc"/></g></g><g><g><path d="m403.488 375.315h-301.174c-5.888 0-10.661-4.773-10.661-10.661v-69.989c0-5.888 4.773-10.661 10.661-10.661h301.174c5.888 0 10.661 4.773 10.661 10.661v69.989c0 5.888-4.773 10.661-10.661 10.661z" fill="#bed9fd"/></g></g><g><g><path d="m381.828 346.252h-129.034c-3.441 0-6.23-2.789-6.23-6.23v-19.735c0-3.441 2.789-6.23 6.23-6.23h129.034c3.441 0 6.23 2.789 6.23 6.23v19.735c0 3.44-2.789 6.23-6.23 6.23z" fill="#80b6fc"/></g></g><g><g><path d="m332.662 375.315h30v31.677h-30z" fill="#5392f9"/></g></g><g><g><path d="m403.488 406.992h-30c5.888 0 10.661 4.773 10.661 10.661v69.989c0 5.888-4.773 10.661-10.661 10.661h30c5.888 0 10.661-4.773 10.661-10.661v-69.989c0-5.888-4.773-10.661-10.661-10.661z" fill="#97c3fc"/></g></g><g><g><path d="m381.828 437.044h-30c3.441 0 6.23 2.789 6.23 6.23v19.735c0 3.441-2.789 6.23-6.23 6.23h30c3.441 0 6.23-2.789 6.23-6.23v-19.735c0-3.441-2.789-6.23-6.23-6.23z" fill="#62a4fb"/></g></g><g><g><path d="m403.488 284.005h-30c5.888 0 10.661 4.773 10.661 10.661v69.989c0 5.888-4.773 10.661-10.661 10.661h30c5.888 0 10.661-4.773 10.661-10.661v-69.989c0-5.888-4.773-10.661-10.661-10.661z" fill="#97c3fc"/></g></g><g><g><path d="m381.828 314.057h-30c3.441 0 6.23 2.789 6.23 6.23v19.735c0 3.441-2.789 6.23-6.23 6.23h30c3.441 0 6.23-2.789 6.23-6.23v-19.735c0-3.441-2.789-6.23-6.23-6.23z" fill="#62a4fb"/></g></g><g><g><path d="m204.7 233.538h-21.484c-3.88 0-7.026-3.146-7.026-7.026v-21.484c0-3.88 3.146-7.026 7.026-7.026h21.484c3.88 0 7.026 3.146 7.026 7.026v21.484c0 3.88-3.146 7.026-7.026 7.026z" fill="#ffe07d"/></g></g><g><g><path d="m303.43 243.538h-21.484c-3.88 0-7.026-3.146-7.026-7.026v-21.484c0-3.88 3.146-7.026 7.026-7.026h21.484c3.88 0 7.026 3.146 7.026 7.026v21.484c0 3.88-3.146 7.026-7.026 7.026z" fill="#ff8086"/></g></g><g><g><path d="m303.43 134.816h-21.484c-3.88 0-7.026-3.146-7.026-7.026v-21.484c0-3.88 3.146-7.026 7.026-7.026h21.484c3.88 0 7.026 3.146 7.026 7.026v21.484c0 3.88-3.146 7.026-7.026 7.026z" fill="#ffe07d"/></g></g><g><path d="m129.204 459.438c3.751 0 6.791-3.04 6.791-6.791s-3.041-6.791-6.791-6.791c-3.751 0-6.791 3.04-6.791 6.791s3.04 6.791 6.791 6.791z"/><path d="m158.442 459.438c3.751 0 6.791-3.04 6.791-6.791s-3.04-6.791-6.791-6.791-6.791 3.04-6.791 6.791 3.04 6.791 6.791 6.791z"/><path d="m187.679 459.438c3.751 0 6.791-3.04 6.791-6.791s-3.04-6.791-6.791-6.791-6.791 3.04-6.791 6.791 3.041 6.791 6.791 6.791z"/><path d="m216.918 459.438c3.751 0 6.791-3.04 6.791-6.791s-3.04-6.791-6.791-6.791-6.791 3.04-6.791 6.791 3.04 6.791 6.791 6.791z"/><path d="m122.413 329.66c0 3.751 3.04 6.791 6.791 6.791s6.791-3.041 6.791-6.791c0-3.751-3.041-6.791-6.791-6.791-3.751 0-6.791 3.04-6.791 6.791z"/><path d="m151.65 329.66c0 3.751 3.04 6.791 6.791 6.791s6.791-3.041 6.791-6.791c0-3.751-3.04-6.791-6.791-6.791-3.75 0-6.791 3.04-6.791 6.791z"/><path d="m194.471 329.66c0-3.751-3.04-6.791-6.791-6.791s-6.791 3.041-6.791 6.791c0 3.751 3.04 6.791 6.791 6.791 3.75 0 6.791-3.04 6.791-6.791z"/><path d="m223.709 329.66c0-3.751-3.04-6.791-6.791-6.791s-6.791 3.041-6.791 6.791c0 3.751 3.04 6.791 6.791 6.791 3.75 0 6.791-3.04 6.791-6.791z"/><path d="m252.794 476.738h129.034c7.57 0 13.729-6.159 13.729-13.73v-19.735c0-7.571-6.159-13.73-13.729-13.73h-129.034c-7.57 0-13.729 6.159-13.729 13.73v19.735c0 7.571 6.159 13.73 13.729 13.73zm1.271-32.194h126.493v17.195h-126.493z"/><path d="m403.489 382.815c10.014 0 18.16-8.147 18.16-18.161v-69.989c0-10.014-8.146-18.161-18.16-18.161h-103.301v-25.467h3.242c8.01 0 14.525-6.516 14.525-14.526v-21.484c0-8.01-6.516-14.526-14.525-14.526h-3.242v-24.628h51.648c11.893 0 23.202-4.491 31.844-12.645 8.732-8.24 13.766-19.316 14.173-31.184.021-.593.031-1.189.031-1.787 0-25.8-19.161-47.209-44-50.742-2.541-25.904-24.447-46.211-51.008-46.211-5.954 0-11.87 1.044-17.435 3.052-12.609-21.339-35.031-35.037-60.1-36.266-20.294-.995-39.68 6.218-54.563 20.312-14.863 14.076-23.11 33.002-23.22 53.294-.012 2.195.074 4.396.256 6.587-22.916 5.203-39.896 25.797-39.896 49.975 0 .596.01 1.189.03 1.784.408 11.872 5.441 22.947 14.174 31.187 8.642 8.154 19.95 12.645 31.843 12.645h33.005v14.628h-3.755c-8.01 0-14.526 6.516-14.526 14.526v21.484c0 8.01 6.516 14.526 14.526 14.526h21.483c8.01 0 14.526-6.516 14.526-14.526v-21.484c0-8.01-6.516-14.526-14.526-14.526h-2.729v-14.628h83.217v24.628h-3.242c-8.01 0-14.525 6.516-14.525 14.526v21.484c0 8.01 6.516 14.526 14.525 14.526h3.242v25.467h-106.655c-4.142 0-7.5 3.358-7.5 7.5s3.358 7.5 7.5 7.5h224.958c1.742 0 3.16 1.418 3.16 3.161v69.989c0 1.743-1.418 3.161-3.16 3.161h-301.175c-1.743 0-3.161-1.418-3.161-3.161v-69.989c0-1.743 1.418-3.161 3.161-3.161h46.216c4.142 0 7.5-3.358 7.5-7.5s-3.358-7.5-7.5-7.5h-46.216c-10.014 0-18.161 8.147-18.161 18.161v69.989c0 10.014 8.147 18.161 18.161 18.161h30.522v16.676h-30.522c-10.014 0-18.161 8.147-18.161 18.161v69.989c0 10.014 8.147 18.161 18.161 18.161h301.174c10.014 0 18.16-8.147 18.16-18.161v-69.989c0-10.014-8.146-18.161-18.16-18.161h-33.326v-16.676h33.327zm-199.264-156.777h-20.535v-20.536h20.535zm-50.259-65.164c-16.552 0-30.47-13.165-31.026-29.342-.014-.423-.021-.848-.021-1.274 0-19.019 14.853-34.903 33.813-36.161 2.143-.142 4.122-1.196 5.436-2.895s1.836-3.879 1.436-5.989c-.715-3.758-1.067-7.605-1.046-11.435.088-16.161 6.67-31.249 18.534-42.484 11.161-10.57 25.47-16.294 40.572-16.294.978 0 1.959.024 2.942.072 21.963 1.077 41.379 14.161 50.672 34.146.872 1.875 2.48 3.308 4.443 3.958 1.966.65 4.109.46 5.928-.525 5.253-2.843 11.21-4.346 17.227-4.346 19.99 0 36.254 16.263 36.254 36.254 0 .543-.018 1.081-.042 1.618-.089 2.044.66 4.036 2.075 5.514 1.414 1.478 3.372 2.314 5.418 2.314.039 0 .081 0 .125-.001 19.955.042 36.178 16.289 36.178 36.254 0 .424-.007.847-.022 1.27-.556 16.182-14.474 29.347-31.026 29.347h-51.648v-18.559h3.242c8.01 0 14.525-6.516 14.525-14.526v-21.484c0-8.01-6.516-14.526-14.525-14.526h-21.484c-8.01 0-14.525 6.516-14.525 14.526v21.484c0 8.01 6.516 14.526 14.525 14.526h3.242v18.559h-131.222zm128.454-33.558v-20.536h20.535v20.536zm0 88.186h20.535v20.536h-20.535zm124.229 202.15v69.989c0 1.743-1.418 3.161-3.16 3.161h-301.175c-1.743 0-3.161-1.418-3.161-3.161v-69.989c0-1.743 1.418-3.161 3.161-3.161h301.174c1.743.001 3.161 1.419 3.161 3.161zm-51.487-18.16h-207.326v-16.676h207.326z"/><path d="m381.828 353.752c7.57 0 13.729-6.159 13.729-13.73v-19.735c0-7.57-6.159-13.73-13.729-13.73h-129.034c-7.57 0-13.729 6.159-13.729 13.73v19.735c0 7.571 6.159 13.73 13.729 13.73zm-127.763-32.195h126.493v17.195h-126.493z"/></g></g></svg>